<?xml version="1.0" encoding="UTF-8" standalone="no"?>
<!-- Created with Inkscape (http://www.inkscape.org/) -->
<svg xmlns:dc="http://purl.org/dc/elements/1.1/" xmlns:cc="http://web.resource.org/cc/" xmlns:rdf="http://www.w3.org/1999/02/22-rdf-syntax-ns#" xmlns:svg="http://www.w3.org/2000/svg" xmlns="http://www.w3.org/2000/svg" xmlns:xlink="http://www.w3.org/1999/xlink" xmlns:sodipodi="http://sodipodi.sourceforge.net/DTD/sodipodi-0.dtd" xmlns:inkscape="http://www.inkscape.org/namespaces/inkscape" width="178.37129" height="264.19806" id="svg6213" sodipodi:version="0.32" inkscape:version="0.45" version="1.0" sodipodi:docbase="/home/fahad/Desktop" sodipodi:docname="thilakarathna_Bus_Halt.svg" inkscape:export-filename="/home/fahad/Desktop/Bus_Halt.png" inkscape:export-xdpi="150" inkscape:export-ydpi="150" inkscape:output_extension="org.inkscape.output.svg.inkscape" sodipodi:modified="TRUE">
  <defs id="defs6215">
    <linearGradient inkscape:collect="always" xlink:href="#linearGradient5456" id="linearGradient5498" gradientUnits="userSpaceOnUse" gradientTransform="matrix(0.83731, 0, 0, 0.83731, 122.117, -209.238)" x1="527.5" y1="-1917.553" x2="479.5" y2="-131.72624"/>
    <linearGradient inkscape:collect="always" id="linearGradient5456">
      <stop style="stop-color: rgb(0, 255, 255); stop-opacity: 1;" offset="0" id="stop5458"/>
      <stop style="stop-color: rgb(0, 255, 255); stop-opacity: 0;" offset="1" id="stop5460"/>
    </linearGradient>
    <linearGradient inkscape:collect="always" xlink:href="#linearGradient5456" id="linearGradient5496" gradientUnits="userSpaceOnUse" gradientTransform="matrix(0.508315, 0, 0, 0.508315, 196.577, -737.854)" x1="527.5" y1="-1917.553" x2="479.5" y2="-131.72624"/>
    <linearGradient inkscape:collect="always" xlink:href="#linearGradient5456" id="linearGradient6269" gradientUnits="userSpaceOnUse" gradientTransform="matrix(0.135991, 0, 0, 0.135991, 381.515, 500.095)" x1="527.5" y1="-1917.553" x2="479.5" y2="-131.72624"/>
    <linearGradient inkscape:collect="always" xlink:href="#linearGradient5456" id="linearGradient6282" gradientUnits="userSpaceOnUse" gradientTransform="matrix(0.0825575, 0, 0, 0.0825575, 393.609, 414.241)" x1="527.5" y1="-1917.553" x2="479.5" y2="-131.72624"/>
    <linearGradient inkscape:collect="always" xlink:href="#linearGradient5456" id="linearGradient6312" gradientUnits="userSpaceOnUse" gradientTransform="matrix(0.0825575, 0, 0, 0.0825575, 393.609, 414.241)" x1="527.5" y1="-1917.553" x2="479.5" y2="-131.72624"/>
    <linearGradient inkscape:collect="always" xlink:href="#linearGradient5456" id="linearGradient6314" gradientUnits="userSpaceOnUse" gradientTransform="matrix(0.135991, 0, 0, 0.135991, 381.515, 500.095)" x1="527.5" y1="-1917.553" x2="479.5" y2="-131.72624"/>
    <linearGradient inkscape:collect="always" xlink:href="#linearGradient5456" id="linearGradient6331" gradientUnits="userSpaceOnUse" gradientTransform="matrix(0.135991, 0, 0, 0.135991, 381.515, 500.095)" x1="527.5" y1="-1917.553" x2="479.5" y2="-131.72624"/>
    <linearGradient inkscape:collect="always" xlink:href="#linearGradient5456" id="linearGradient6344" gradientUnits="userSpaceOnUse" gradientTransform="matrix(0.0825575, 0, 0, 0.0825575, 393.609, 414.241)" x1="527.5" y1="-1917.553" x2="479.5" y2="-131.72624"/>
    <linearGradient inkscape:collect="always" xlink:href="#linearGradient5456" id="linearGradient6373" gradientUnits="userSpaceOnUse" gradientTransform="matrix(0.0825575, 0, 0, 0.0825575, 393.609, 414.241)" x1="527.5" y1="-1917.553" x2="479.5" y2="-131.72624"/>
    <linearGradient inkscape:collect="always" xlink:href="#linearGradient5456" id="linearGradient6375" gradientUnits="userSpaceOnUse" gradientTransform="matrix(0.135991, 0, 0, 0.135991, 381.515, 500.095)" x1="527.5" y1="-1917.553" x2="479.5" y2="-131.72624"/>
    <linearGradient inkscape:collect="always" xlink:href="#linearGradient5456" id="linearGradient1928" gradientUnits="userSpaceOnUse" gradientTransform="matrix(0.135991, 0, 0, 0.135991, 381.515, 500.095)" x1="527.5" y1="-1917.553" x2="479.5" y2="-131.72624"/>
    <linearGradient inkscape:collect="always" xlink:href="#linearGradient5456" id="linearGradient1941" gradientUnits="userSpaceOnUse" gradientTransform="matrix(0.0825575, 0, 0, 0.0825575, 393.609, 414.241)" x1="527.5" y1="-1917.553" x2="479.5" y2="-131.72624"/>
    <linearGradient inkscape:collect="always" xlink:href="#linearGradient5456" id="linearGradient2296" gradientUnits="userSpaceOnUse" gradientTransform="matrix(0.135991, 0, 0, 0.135991, 381.515, 500.095)" x1="527.5" y1="-1917.553" x2="479.5" y2="-131.72624"/>
    <linearGradient inkscape:collect="always" xlink:href="#linearGradient5456" id="linearGradient2312" gradientUnits="userSpaceOnUse" gradientTransform="matrix(0.0825575, 0, 0, 0.0825575, 393.609, 414.241)" x1="527.5" y1="-1917.553" x2="479.5" y2="-131.72624"/>
  </defs>
  <sodipodi:namedview inkscape:document-units="mm" pagecolor="#ffffff" bordercolor="#666666" borderopacity="1.0" inkscape:pageopacity="0.0" inkscape:pageshadow="2" inkscape:zoom="0.86831672" inkscape:cx="303.71381" inkscape:cy="154.70921" inkscape:current-layer="layer1" id="namedview6217" inkscape:window-width="872" inkscape:window-height="622" inkscape:window-x="25" inkscape:window-y="49"/>
  <metadata id="metadata6219">
    <rdf:RDF>
      <cc:Work rdf:about="">
        <dc:format>image/svg+xml</dc:format>
        <dc:type rdf:resource="http://purl.org/dc/dcmitype/StillImage"/>
        <dc:title>Bus Halt</dc:title>
        <dc:date>07 th June 2008</dc:date>
        <dc:creator>
          <cc:Agent>
            <dc:title>Kenneth Thilakarathna - UCSC - LK</dc:title>
          </cc:Agent>
        </dc:creator>
        <cc:license rdf:resource="http://web.resource.org/cc/PublicDomain"/>
        <dc:subject>
          <rdf:Bag>
            <rdf:li>bus-stop</rdf:li>
            <rdf:li>bus-halt</rdf:li>
            <rdf:li>bus stop</rdf:li>
            <rdf:li>bus halt</rdf:li>
          </rdf:Bag>
        </dc:subject>
      </cc:Work>
      <cc:License rdf:about="http://web.resource.org/cc/PublicDomain">
        <cc:permits rdf:resource="http://web.resource.org/cc/Reproduction"/>
        <cc:permits rdf:resource="http://web.resource.org/cc/Distribution"/>
        <cc:permits rdf:resource="http://web.resource.org/cc/DerivativeWorks"/>
      </cc:License>
    </rdf:RDF>
  </metadata>
  <g inkscape:label="Layer 1" inkscape:groupmode="layer" id="layer1" transform="translate(-323.107, -221.199)">
    <g id="g2314">
      <rect y="305.73587" x="399.18127" height="80.035286" width="59.441422" id="rect5464" style="fill: url(#linearGradient2312) rgb(0, 0, 0); fill-opacity: 1; stroke: rgb(7, 0, 0); stroke-width: 0.87758; stroke-miterlimit: 4; stroke-dasharray: none; stroke-opacity: 1;"/>
      <g transform="matrix(0.102737, 0, 0, 0.102737, 376.38, 502.333)" id="g5414">
        <path sodipodi:type="arc" style="fill: rgb(10, 0, 0); fill-opacity: 1; stroke: rgb(7, 0, 0); stroke-width: 4.53543; stroke-miterlimit: 4; stroke-dasharray: none; stroke-opacity: 1;" id="path5416" sodipodi:cx="600" sodipodi:cy="-992.12592" sodipodi:rx="168" sodipodi:ry="38.267715" d="M 768 -992.12592 A 168 38.267715 0 1 1  432,-992.12592 A 168 38.267715 0 1 1  768 -992.12592 z" transform="translate(-0.5, 5.75398)"/>
        <path style="fill: none; fill-rule: evenodd; stroke: rgb(0, 0, 0); stroke-width: 86.0315; stroke-linecap: butt; stroke-linejoin: miter; stroke-miterlimit: 4; stroke-dasharray: none; stroke-opacity: 1;" d="M 595.50002,-946.1042 C 595.50002,-742.00971 595.50002,-742.00971 595.50002,-742.00971" id="path5418"/>
      </g>
      <g transform="matrix(0.0922068, 0, 0, 0.0922068, 376.384, 471.043)" id="g5420">
        <path sodipodi:type="arc" style="fill: rgb(10, 0, 0); fill-opacity: 1; stroke: rgb(7, 0, 0); stroke-width: 4.53543; stroke-miterlimit: 4; stroke-dasharray: none; stroke-opacity: 1;" id="path5422" sodipodi:cx="600" sodipodi:cy="-992.12592" sodipodi:rx="168" sodipodi:ry="38.267715" d="M 768 -992.12592 A 168 38.267715 0 1 1  432,-992.12592 A 168 38.267715 0 1 1  768 -992.12592 z" transform="translate(-0.5, 5.75398)"/>
        <path style="fill: none; fill-rule: evenodd; stroke: rgb(0, 0, 0); stroke-width: 86.0315; stroke-linecap: butt; stroke-linejoin: miter; stroke-miterlimit: 4; stroke-dasharray: none; stroke-opacity: 1;" d="M 595.50002,-946.1042 C 595.50002,-742.00971 595.50002,-742.00971 595.50002,-742.00971" id="path5424"/>
      </g>
      <g transform="matrix(0.141346, 0, 0, 0.141346, 360.279, 565.272)" id="g5394">
        <path sodipodi:type="arc" style="fill: rgb(10, 0, 0); fill-opacity: 1; stroke: rgb(7, 0, 0); stroke-width: 4.53543; stroke-miterlimit: 4; stroke-dasharray: none; stroke-opacity: 1;" id="path5390" sodipodi:cx="600" sodipodi:cy="-992.12592" sodipodi:rx="168" sodipodi:ry="38.267715" d="M 768 -992.12592 A 168 38.267715 0 1 1  432,-992.12592 A 168 38.267715 0 1 1  768 -992.12592 z" transform="translate(-0.5, 5.75398)"/>
        <path style="fill: none; fill-rule: evenodd; stroke: rgb(0, 0, 0); stroke-width: 86.0315; stroke-linecap: butt; stroke-linejoin: miter; stroke-miterlimit: 4; stroke-dasharray: none; stroke-opacity: 1;" d="M 595.50002,-946.1042 C 595.50002,-742.00971 595.50002,-742.00971 595.50002,-742.00971" id="path5392"/>
      </g>
      <path sodipodi:end="6.2814937" sodipodi:start="3.1458674" transform="matrix(0.139174, 0, 0, 0.125355, 348.828, 471.175)" d="M -143.99452,-1250.2431 A 600,701.57483 0 0 1 1055.9991,-1248.4308 L 456,-1247.244 z" sodipodi:ry="701.57483" sodipodi:rx="600" sodipodi:cy="-1247.244" sodipodi:cx="456" id="path5398" style="fill: rgb(85, 34, 0); fill-opacity: 1; stroke: rgb(7, 0, 0); stroke-width: 86.0315; stroke-miterlimit: 4; stroke-dasharray: none; stroke-opacity: 1;" sodipodi:type="arc"/>
      <path id="path5402" d="M 495.51107,320.20041 C 495.51107,479.43124 495.51107,479.43124 495.51107,479.43124" style="fill: none; fill-rule: evenodd; stroke: rgb(0, 0, 0); stroke-width: 11.9325; stroke-linecap: butt; stroke-linejoin: miter; stroke-miterlimit: 4; stroke-dasharray: none; stroke-opacity: 1;"/>
      <path id="path5410" d="M 478.53868,320.4603 C 478.53868,448.7526 478.53868,448.7526 478.53868,448.7526" style="fill: none; fill-rule: evenodd; stroke: rgb(0, 0, 0); stroke-width: 10.7107; stroke-linecap: butt; stroke-linejoin: miter; stroke-miterlimit: 4; stroke-dasharray: none; stroke-opacity: 1;"/>
      <path id="path5412" d="M 462.94693,320.38103 C 462.94693,400.73806 462.94693,400.73806 462.94693,400.73806" style="fill: none; fill-rule: evenodd; stroke: rgb(0, 0, 0); stroke-width: 8.47674; stroke-linecap: butt; stroke-linejoin: miter; stroke-miterlimit: 4; stroke-dasharray: none; stroke-opacity: 1;"/>
      <rect y="321.36346" x="390.69467" height="131.83618" width="97.913445" id="rect5454" style="fill: url(#linearGradient2296) rgb(0, 0, 0); fill-opacity: 1; stroke: rgb(7, 0, 0); stroke-width: 1.44557; stroke-miterlimit: 4; stroke-dasharray: none; stroke-opacity: 1;"/>
      <g transform="matrix(0.162414, 0, 0, 0.162414, 396.455, 615.534)" id="g5378">
        <g id="g5366" transform="translate(-556.499, -494.074)">
          <g transform="matrix(0.996807, 0.0798454, -0.0798454, 0.996807, -118.094, -58.9951)" id="g5360">
            <g id="g5341" transform="matrix(0.999743, -0.022669, 0.022669, 0.999743, 34.3179, 14.9971)">
              <path transform="matrix(0.998587, 0.0531485, -0.0531485, 0.998587, -560.394, 98.4307)" d="M 1248,-1479.685 L 1086.5899,-1467.0142 L 963.49616,-1572.1888 L 950.8254,-1733.5989 L 1056,-1856.6927 L 1217.4101,-1869.3634 L 1340.5038,-1764.1888 L 1353.1746,-1602.7788 L 1248,-1479.685 z " inkscape:randomized="0" inkscape:rounded="0" inkscape:flatsided="true" sodipodi:arg2="1.4924566" sodipodi:arg1="1.0997575" sodipodi:r2="171.14047" sodipodi:r1="211.54124" sodipodi:cy="-1668.1888" sodipodi:cx="1152" sodipodi:sides="8" id="path4558" style="fill: rgb(255, 0, 0);" sodipodi:type="star"/>
              <g transform="matrix(0.998587, 0.0531485, -0.0531485, 0.998587, -79.0917, -38.1975)" id="g5338">
                <path sodipodi:type="star" style="fill: rgb(255, 255, 255);" id="path4566" sodipodi:sides="8" sodipodi:cx="1152" sodipodi:cy="-1668.1888" sodipodi:r1="211.54124" sodipodi:r2="171.14047" sodipodi:arg1="1.0997575" sodipodi:arg2="1.4924566" inkscape:flatsided="true" inkscape:rounded="0" inkscape:randomized="0" d="M 1248,-1479.685 L 1086.5899,-1467.0142 L 963.49616,-1572.1888 L 950.8254,-1733.5989 L 1056,-1856.6927 L 1217.4101,-1869.3634 L 1340.5038,-1764.1888 L 1353.1746,-1602.7788 L 1248,-1479.685 z " transform="matrix(0.928634, 0, 0, 0.928634, -391.436, 43.3049)"/>
              </g>
            </g>
          </g>
          <path id="text5346" d="M 607.79673,-1572.4732 C 610.28949,-1572.4731 612.17962,-1573.021 613.46715,-1574.1167 C 614.75459,-1575.2124 615.39833,-1576.8286 615.39837,-1578.9654 C 615.39833,-1581.0746 614.75459,-1582.6771 613.46715,-1583.7729 C 612.17962,-1584.896 610.28949,-1585.4575 607.79673,-1585.4576 L 599.04458,-1585.4576 L 599.04458,-1572.4732 L 607.79673,-1572.4732 M 608.3309,-1545.6414 C 611.50849,-1545.6414 613.8917,-1546.3125 615.48055,-1547.6548 C 617.09672,-1548.9971 617.90482,-1551.0242 617.90486,-1553.7361 C 617.90482,-1556.3933 617.11041,-1558.3793 615.52164,-1559.6942 C 613.93279,-1561.0364 611.53588,-1561.7076 608.3309,-1561.7076 L 599.04458,-1561.7076 L 599.04458,-1545.6414 L 608.3309,-1545.6414 M 623.0411,-1567.7067 C 626.43782,-1566.7205 629.06757,-1564.8989 630.93037,-1562.2418 C 632.79306,-1559.5846 633.72443,-1556.3248 633.72449,-1552.4623 C 633.72443,-1546.5454 631.72472,-1542.1351 627.72536,-1539.2314 C 623.72589,-1536.3277 617.64458,-1534.8759 609.48142,-1534.8759 L 583.22495,-1534.8759 L 583.22495,-1596.2231 L 606.97494,-1596.2231 C 615.49421,-1596.2231 621.65769,-1594.9356 625.46541,-1592.3607 C 629.30042,-1589.7857 631.21794,-1585.663 631.218,-1579.9926 C 631.21794,-1577.0067 630.51942,-1574.4591 629.12241,-1572.3499 C 627.7253,-1570.268 625.6982,-1568.7202 623.0411,-1567.7067 M 647.32526,-1596.2231 L 663.14489,-1596.2231 L 663.14489,-1559.4476 C 663.14486,-1554.3799 663.96666,-1550.7503 665.61028,-1548.5588 C 667.28125,-1546.3947 669.99318,-1545.3127 673.74609,-1545.3127 C 677.52633,-1545.3127 680.23826,-1546.3947 681.8819,-1548.5588 C 683.55285,-1550.7503 684.38834,-1554.3799 684.38839,-1559.4476 L 684.38839,-1596.2231 L 700.20801,-1596.2231 L 700.20801,-1559.4476 C 700.20795,-1550.7639 698.03019,-1544.2991 693.67471,-1540.0532 C 689.31913,-1535.8072 682.67626,-1533.6842 673.74609,-1533.6842 C 664.84325,-1533.6842 658.21408,-1535.8072 653.85856,-1540.0532 C 649.50302,-1544.2991 647.32525,-1550.7639 647.32526,-1559.4476 L 647.32526,-1596.2231 M 758.39137,-1594.2919 L 758.39137,-1581.3075 C 755.02194,-1582.8141 751.73475,-1583.9509 748.52978,-1584.718 C 745.32473,-1585.4849 742.29777,-1585.8684 739.4489,-1585.8685 C 735.6686,-1585.8684 732.87449,-1585.3479 731.06656,-1584.3071 C 729.25858,-1583.2661 728.3546,-1581.6499 728.35462,-1579.4584 C 728.3546,-1577.8148 728.95725,-1576.5273 730.16258,-1575.596 C 731.39525,-1574.692 733.61411,-1573.9113 736.81915,-1573.2539 L 743.5579,-1571.8979 C 750.37879,-1570.5282 755.22739,-1568.4463 758.10374,-1565.6522 C 760.97998,-1562.8581 762.41813,-1558.8861 762.41818,-1553.7361 C 762.41813,-1546.97 760.40472,-1541.9296 756.37796,-1538.615 C 752.37849,-1535.3278 746.2561,-1533.6842 738.01076,-1533.6842 C 734.12088,-1533.6842 730.21734,-1534.0541 726.30012,-1534.7937 C 722.38287,-1535.5333 718.46563,-1536.629 714.5484,-1538.0809 L 714.5484,-1551.4351 C 718.46563,-1549.3532 722.2459,-1547.7781 725.88922,-1546.7098 C 729.5599,-1545.6688 733.09363,-1545.1483 736.49043,-1545.1483 C 739.94195,-1545.1483 742.5854,-1545.7236 744.42079,-1546.8741 C 746.2561,-1548.0246 747.17377,-1549.6682 747.17381,-1551.8049 C 747.17377,-1553.7224 746.54373,-1555.2017 745.28368,-1556.2426 C 744.05094,-1557.2835 741.57185,-1558.2149 737.8464,-1559.0367 L 731.72399,-1560.3927 C 725.58788,-1561.7076 721.09538,-1563.8031 718.24649,-1566.6795 C 715.42498,-1569.5557 714.01422,-1573.4319 714.01423,-1578.3079 C 714.01422,-1584.4166 715.98654,-1589.1145 719.93118,-1592.4018 C 723.8758,-1595.6889 729.54621,-1597.3325 736.94242,-1597.3326 C 740.31176,-1597.3325 743.77701,-1597.0723 747.33817,-1596.5519 C 750.89926,-1596.0587 754.58365,-1595.3054 758.39137,-1594.2919 M 596.9079,-1489.1017 L 596.9079,-1476.1172 C 593.53848,-1477.6238 590.25129,-1478.7606 587.04631,-1479.5277 C 583.84126,-1480.2947 580.81431,-1480.6782 577.96544,-1480.6782 C 574.18513,-1480.6782 571.39102,-1480.1577 569.58309,-1479.1168 C 567.77511,-1478.0758 566.87113,-1476.4596 566.87115,-1474.2682 C 566.87113,-1472.6246 567.47378,-1471.3371 568.67911,-1470.4057 C 569.91179,-1469.5017 572.13064,-1468.721 575.33568,-1468.0636 L 582.07443,-1466.7076 C 588.89532,-1465.3379 593.74393,-1463.2561 596.62027,-1460.462 C 599.49651,-1457.6678 600.93466,-1453.6958 600.93471,-1448.5459 C 600.93466,-1441.7797 598.92125,-1436.7394 594.89449,-1433.4248 C 590.89503,-1430.1376 584.77263,-1428.494 576.52729,-1428.494 C 572.63742,-1428.494 568.73387,-1428.8638 564.81666,-1429.6034 C 560.8994,-1430.343 556.98216,-1431.4388 553.06493,-1432.8906 L 553.06493,-1446.2449 C 556.98216,-1444.1629 560.76243,-1442.5878 564.40576,-1441.5195 C 568.07644,-1440.4786 571.61017,-1439.9581 575.00696,-1439.9581 C 578.45848,-1439.9581 581.10193,-1440.5333 582.93732,-1441.6839 C 584.77263,-1442.8344 585.69031,-1444.478 585.69035,-1446.6147 C 585.69031,-1448.5322 585.06026,-1450.0114 583.80021,-1451.0524 C 582.56747,-1452.0933 580.08838,-1453.0247 576.36293,-1453.8465 L 570.24053,-1455.2025 C 564.10441,-1456.5173 559.61192,-1458.6129 556.76303,-1461.4892 C 553.94151,-1464.3655 552.53076,-1468.2416 552.53076,-1473.1177 C 552.53076,-1479.2263 554.50307,-1483.9243 558.44772,-1487.2115 C 562.39233,-1490.4987 568.06274,-1492.1423 575.45895,-1492.1423 C 578.82829,-1492.1423 582.29354,-1491.882 585.85471,-1491.3616 C 589.41579,-1490.8685 593.10019,-1490.1152 596.9079,-1489.1017 M 607.5502,-1491.0329 L 664.08995,-1491.0329 L 664.08995,-1479.0757 L 643.75043,-1479.0757 L 643.75043,-1429.6856 L 627.93081,-1429.6856 L 627.93081,-1479.0757 L 607.5502,-1479.0757 L 607.5502,-1491.0329 M 700.24911,-1480.6782 C 695.42786,-1480.6782 691.68867,-1478.8976 689.03155,-1475.3365 C 686.37438,-1471.7754 685.04581,-1466.7624 685.04583,-1460.2976 C 685.04581,-1453.8602 686.37438,-1448.8609 689.03155,-1445.2998 C 691.68867,-1441.7386 695.42786,-1439.9581 700.24911,-1439.9581 C 705.09768,-1439.9581 708.85056,-1441.7386 711.50775,-1445.2998 C 714.16485,-1448.8609 715.49342,-1453.8602 715.49347,-1460.2976 C 715.49342,-1466.7624 714.16485,-1471.7754 711.50775,-1475.3365 C 708.85056,-1478.8976 705.09768,-1480.6782 700.24911,-1480.6782 M 700.24911,-1492.1423 C 710.11065,-1492.1423 717.83555,-1489.3207 723.42383,-1483.6778 C 729.012,-1478.0347 731.80611,-1470.2413 731.80618,-1460.2976 C 731.80611,-1450.3812 729.012,-1442.6015 723.42383,-1436.9585 C 717.83555,-1431.3155 710.11065,-1428.494 700.24911,-1428.494 C 690.41489,-1428.494 682.68999,-1431.3155 677.07438,-1436.9585 C 671.48614,-1442.6015 668.69203,-1450.3812 668.69203,-1460.2976 C 668.69203,-1470.2413 671.48614,-1478.0347 677.07438,-1483.6778 C 682.68999,-1489.3207 690.41489,-1492.1423 700.24911,-1492.1423 M 743.72226,-1491.0329 L 769.97873,-1491.0329 C 777.78578,-1491.0328 783.7712,-1489.2934 787.93503,-1485.8145 C 792.12615,-1482.3629 794.22174,-1477.4321 794.22179,-1471.0221 C 794.22174,-1464.5846 792.12615,-1459.6264 787.93503,-1456.1475 C 783.7712,-1452.6959 777.78578,-1450.9702 769.97873,-1450.9702 L 759.54188,-1450.9702 L 759.54188,-1429.6856 L 743.72226,-1429.6856 L 743.72226,-1491.0329 M 759.54188,-1479.5688 L 759.54188,-1462.4343 L 768.29404,-1462.4343 C 771.36205,-1462.4343 773.73157,-1463.1739 775.4026,-1464.6531 C 777.07355,-1466.1597 777.90905,-1468.2827 777.90909,-1471.0221 C 777.90905,-1473.7614 777.07355,-1475.8707 775.4026,-1477.3499 C 773.73157,-1478.8291 771.36205,-1479.5687 768.29404,-1479.5688 L 759.54188,-1479.5688" style="font-size: 84.1522px; font-style: normal; font-weight: bold; fill: rgb(255, 0, 0); fill-opacity: 1; stroke: none; stroke-width: 1px; stroke-linecap: butt; stroke-linejoin: miter; stroke-opacity: 1; font-family: Bitstream Vera Sans;"/>
        </g>
        <path style="fill: none; fill-opacity: 1; fill-rule: evenodd; stroke: rgb(252, 0, 0); stroke-width: 25.7953; stroke-linecap: butt; stroke-linejoin: miter; stroke-miterlimit: 4; stroke-dasharray: none; stroke-opacity: 1;" d="M 115.5,-1811.5058 C 115.5,-842.05694 115.5,-842.05694 115.5,-842.05694" id="path5376"/>
      </g>
    </g>
  </g>
</svg>